<svg width="19" height="19" viewBox="0 0 19 19" fill="none" xmlns="http://www.w3.org/2000/svg">
<g clip-path="url(#clip0)">
<path d="M11.4336 18.5H4.71875C3.16789 18.5 1.90625 17.2384 1.90625 15.6875V6.16016C1.90625 4.6093 3.16789 3.34766 4.71875 3.34766H11.4336C12.9845 3.34766 14.2461 4.6093 14.2461 6.16016V15.6875C14.2461 17.2384 12.9845 18.5 11.4336 18.5ZM4.71875 4.75391C3.94339 4.75391 3.3125 5.3848 3.3125 6.16016V15.6875C3.3125 16.4629 3.94339 17.0938 4.71875 17.0938H11.4336C12.209 17.0938 12.8398 16.4629 12.8398 15.6875V6.16016C12.8398 5.3848 12.209 4.75391 11.4336 4.75391H4.71875ZM17.0586 13.9297V3.3125C17.0586 1.76164 15.797 0.5 14.2461 0.5H6.44141C6.05304 0.5 5.73828 0.814758 5.73828 1.20312C5.73828 1.59149 6.05304 1.90625 6.44141 1.90625H14.2461C15.0215 1.90625 15.6523 2.53714 15.6523 3.3125V13.9297C15.6523 14.3181 15.9671 14.6328 16.3555 14.6328C16.7438 14.6328 17.0586 14.3181 17.0586 13.9297Z" fill="white"/>
</g>
<defs>
<clipPath id="clip0">
<rect width="18" height="18" fill="white" transform="translate(0.5 0.5)"/>
</clipPath>
</defs>
</svg>
