<svg width="23" height="23" viewBox="0 0 23 23" fill="none" xmlns="http://www.w3.org/2000/svg">
<g clip-path="url(#clip0)">
<path d="M19.4247 3.52583C15.0567 -0.842245 7.98609 -0.842944 3.6174 3.52583C-0.75072 7.89391 -0.751375 14.9645 3.6174 19.3332C7.98539 23.7013 15.056 23.7019 19.4247 19.3332C23.7928 14.9651 23.7935 7.89456 19.4247 3.52583ZM18.9576 17.7399C18.4353 17.2729 17.8767 16.8596 17.2879 16.5034C17.677 15.159 17.9076 13.6796 17.9621 12.1418H21.2483C21.0997 14.2147 20.3033 16.1591 18.9576 17.7399ZM1.79375 12.1418H5.07996C5.13446 13.6796 5.36503 15.159 5.75422 16.5034C5.1654 16.8596 4.60676 17.2729 4.08453 17.7399C2.73878 16.1591 1.94238 14.2147 1.79375 12.1418V12.1418ZM4.08457 5.11916C4.60681 5.58616 5.16544 5.99944 5.75427 6.3556C5.36508 7.69999 5.1345 9.17939 5.08 10.7172H1.79375C1.94238 8.64441 2.73878 6.69993 4.08457 5.11916V5.11916ZM10.8088 6.50283C9.6471 6.41974 8.527 6.13362 7.48859 5.66161C8.09252 4.10645 9.20585 2.24122 10.8088 1.77898V6.50283ZM10.8088 7.93008V10.7173H6.50516C6.55447 9.41637 6.73879 8.1672 7.04533 7.02424C8.22539 7.5401 9.49451 7.84818 10.8088 7.93008V7.93008ZM10.8088 12.1418V14.929C9.49451 15.0109 8.22539 15.319 7.04533 15.8348C6.73879 14.6919 6.55447 13.4427 6.50516 12.1418H10.8088ZM10.8088 16.3562V21.08C9.20594 20.6178 8.0926 18.7528 7.48859 17.1975C8.527 16.7254 9.6471 16.4393 10.8088 16.3562ZM12.2333 16.3562C13.395 16.4393 14.5151 16.7254 15.5535 17.1975C14.9496 18.7527 13.8363 20.6178 12.2333 21.08V16.3562ZM12.2333 14.929V12.1418H16.537C16.4877 13.4427 16.3033 14.6919 15.9968 15.8348C14.8167 15.319 13.5476 15.0109 12.2333 14.929ZM12.2333 10.7173V7.93008C13.5476 7.84818 14.8167 7.5401 15.9968 7.02424C16.3033 8.1672 16.4877 9.41637 16.537 10.7173H12.2333ZM12.2333 6.50283V1.77903C13.8363 2.24127 14.9496 4.1065 15.5535 5.66165C14.5151 6.13362 13.395 6.41974 12.2333 6.50283ZM15.4327 2.49017C16.3445 2.88944 17.1952 3.43083 17.9577 4.10257C17.5947 4.4226 17.2118 4.71278 16.8118 4.97228C16.4567 4.09293 16.003 3.23835 15.4327 2.49017V2.49017ZM6.23025 4.97228C5.83033 4.71278 5.44737 4.4226 5.08436 4.10257C5.84691 3.43083 6.69755 2.88944 7.60933 2.49017C7.03909 3.23844 6.58541 4.09301 6.23025 4.97228V4.97228ZM6.2303 17.8868C6.58541 18.7661 7.03918 19.6207 7.60938 20.3689C6.6976 19.9696 5.84695 19.4282 5.08441 18.7565C5.44737 18.4365 5.83037 18.1463 6.2303 17.8868V17.8868ZM16.8118 17.8868C17.2118 18.1463 17.5947 18.4365 17.9577 18.7565C17.1952 19.4282 16.3445 19.9696 15.4327 20.3689C16.0029 19.6208 16.4567 18.7661 16.8118 17.8868ZM17.9622 10.7173C17.9077 9.17943 17.6771 7.69999 17.2879 6.35564C17.8767 5.99948 18.4353 5.5862 18.9576 5.11921C20.3033 6.69993 21.0997 8.64441 21.2484 10.7173H17.9622Z" fill="white"/>
</g>
<defs>
<clipPath id="clip0">
<rect width="22.36" height="22.36" fill="white" transform="translate(0.340942 0.25)"/>
</clipPath>
</defs>
</svg>
