<svg width="23" height="23" viewBox="0 0 23 23" fill="none" xmlns="http://www.w3.org/2000/svg">
<path d="M15.5084 3.27824C16.5886 3.28147 17.6238 3.71204 18.3877 4.47593C19.1515 5.23982 19.5821 6.27494 19.5854 7.35524V15.5084C19.5821 16.5886 19.1515 17.6238 18.3877 18.3877C17.6238 19.1515 16.5886 19.5821 15.5084 19.5854H7.35524C6.27494 19.5821 5.23982 19.1515 4.47593 18.3877C3.71204 17.6238 3.28147 16.5886 3.27824 15.5084V7.35524C3.28147 6.27494 3.71204 5.23982 4.47593 4.47593C5.23982 3.71204 6.27494 3.28147 7.35524 3.27824H15.5084ZM15.5084 1.64771H7.35524C4.21603 1.64771 1.64771 4.21603 1.64771 7.35524V15.5084C1.64771 18.6476 4.21603 21.2159 7.35524 21.2159H15.5084C18.6476 21.2159 21.2159 18.6476 21.2159 15.5084V7.35524C21.2159 4.21603 18.6476 1.64771 15.5084 1.64771Z" fill="white"/>
<path d="M16.7314 7.3552C16.4895 7.3552 16.2531 7.28347 16.0519 7.14909C15.8508 7.0147 15.6941 6.82369 15.6015 6.60022C15.5089 6.37674 15.4847 6.13083 15.5319 5.89359C15.5791 5.65635 15.6956 5.43843 15.8666 5.26739C16.0377 5.09635 16.2556 4.97987 16.4928 4.93268C16.7301 4.88549 16.976 4.90971 17.1994 5.00228C17.4229 5.09484 17.6139 5.2516 17.7483 5.45272C17.8827 5.65385 17.9544 5.8903 17.9544 6.13219C17.9548 6.2929 17.9234 6.45209 17.862 6.60063C17.8007 6.74916 17.7106 6.88413 17.597 6.99776C17.4833 7.1114 17.3484 7.20147 17.1998 7.26281C17.0513 7.32415 16.8921 7.35555 16.7314 7.3552ZM11.4318 8.17025C12.0769 8.17025 12.7075 8.36154 13.2438 8.71992C13.7802 9.0783 14.1982 9.58767 14.4451 10.1836C14.6919 10.7796 14.7565 11.4354 14.6307 12.0681C14.5048 12.7007 14.1942 13.2819 13.7381 13.738C13.2819 14.1941 12.7008 14.5048 12.0681 14.6306C11.4355 14.7564 10.7797 14.6919 10.1837 14.445C9.58775 14.1981 9.07838 13.7801 8.72 13.2438C8.36162 12.7074 8.17033 12.0768 8.17033 11.4318C8.17126 10.567 8.51518 9.738 9.12663 9.12655C9.73808 8.5151 10.5671 8.17118 11.4318 8.17025ZM11.4318 6.53972C10.4643 6.53972 9.51846 6.82663 8.71397 7.36417C7.90947 7.90172 7.28245 8.66575 6.91218 9.55966C6.54191 10.4536 6.44504 11.4372 6.6338 12.3862C6.82256 13.3351 7.28848 14.2068 7.97264 14.891C8.65681 15.5751 9.52849 16.041 10.4775 16.2298C11.4264 16.4186 12.41 16.3217 13.3039 15.9514C14.1979 15.5812 14.9619 14.9541 15.4994 14.1496C16.037 13.3451 16.3239 12.3993 16.3239 11.4318C16.3239 10.1343 15.8085 8.89 14.891 7.97256C13.9736 7.05513 12.7293 6.53972 11.4318 6.53972Z" fill="white"/>
</svg>
