<svg width="24" height="23" viewBox="0 0 24 23" fill="none" xmlns="http://www.w3.org/2000/svg">
<path d="M22.4602 5.03287C21.6737 5.3746 20.8416 5.59973 19.9901 5.70116C20.885 5.17718 21.5579 4.34474 21.8827 3.35997C21.0367 3.85467 20.1127 4.20178 19.1502 4.38642C18.7449 3.96166 18.2574 3.62375 17.7175 3.39323C17.1775 3.16271 16.5963 3.04439 16.0092 3.04548C13.6322 3.04548 11.7086 4.94115 11.7086 7.27797C11.7069 7.60301 11.7442 7.92709 11.8195 8.24328C10.115 8.16337 8.446 7.72856 6.91918 6.96665C5.39237 6.20475 4.0414 5.13253 2.9527 3.8186C2.57076 4.46248 2.36877 5.19712 2.36784 5.94576C2.36784 7.41337 3.13353 8.71064 4.28972 9.47065C3.60471 9.4544 2.93374 9.2731 2.33377 8.94214V8.99455C2.33377 11.0475 3.81886 12.7553 5.78441 13.1441C5.41479 13.2426 5.03391 13.2925 4.65138 13.2926C4.37995 13.293 4.10914 13.2667 3.84288 13.2139C4.38931 14.8956 5.97966 16.1186 7.86353 16.1535C6.33275 17.3333 4.45335 17.9709 2.52072 17.9662C2.17767 17.9657 1.83494 17.9453 1.49426 17.9051C3.46033 19.1605 5.74573 19.8246 8.07843 19.8182C16.0001 19.8182 20.3278 13.3668 20.3278 7.77154C20.3278 7.58809 20.323 7.40464 20.3142 7.22556C21.1542 6.62805 21.8809 5.88553 22.4602 5.03287Z" fill="white"/>
</svg>
