<svg width="180" height="36" viewBox="0 0 180 36" fill="none" xmlns="http://www.w3.org/2000/svg">
<g clip-path="url(#clip0)">
<path d="M11.0841 15.1275L18.0754 8.13654L25.0703 15.1312L29.1383 11.0632L18.0754 0L7.01613 11.0595L11.0841 15.1275Z" fill="#F3BA2F"/>
<path d="M8.21133 17.9994L4.14342 13.9315L0.0752994 17.9996L4.14322 22.0675L8.21133 17.9994Z" fill="#F3BA2F"/>
<path d="M11.0841 20.8725L18.0754 27.8634L25.07 20.8691L29.1403 24.9348L29.1383 24.9371L18.0754 36L7.01585 24.9408L7.01016 24.9351L11.0841 20.8725Z" fill="#F3BA2F"/>
<path d="M32.0077 22.0694L36.0758 18.0013L32.0079 13.9333L27.9398 18.0015L32.0077 22.0694Z" fill="#F3BA2F"/>
<path d="M22.2017 17.9979H22.2034L18.0754 13.8699L15.0247 16.9205H15.0245L14.6742 17.2711L13.9511 17.9942L13.9454 17.9998L13.9511 18.0058L18.0754 22.1301L22.2034 18.0021L22.2053 17.9998L22.2017 17.9979Z" fill="#F3BA2F"/>
<path d="M42.4176 8.72318H51.2653C53.4612 8.72318 55.1217 9.28673 56.2471 10.4138C57.118 11.2867 57.5534 12.3686 57.5534 13.6592V13.7138C57.5534 14.2592 57.486 14.7411 57.3503 15.1591C57.215 15.5776 57.0342 15.9544 56.8081 16.2908C56.5826 16.6274 56.3205 16.9228 56.0225 17.177C55.7242 17.4318 55.4038 17.6502 55.0606 17.8316C56.1644 18.2501 57.0333 18.8179 57.6668 19.5362C58.3 20.2547 58.6171 21.2501 58.6171 22.5225V22.5769C58.6171 23.4498 58.4493 24.2132 58.1135 24.868C57.7777 25.5223 57.2966 26.0679 56.6702 26.5044C56.0438 26.9408 55.2906 27.2678 54.4103 27.4862C53.53 27.7043 52.5544 27.8132 51.4839 27.8132H42.4176V8.72318ZM50.3807 16.4409C51.3082 16.4409 52.0446 16.2822 52.5897 15.9638C53.1351 15.6456 53.4077 15.1318 53.4077 14.423V14.3684C53.4077 13.7323 53.1712 13.2461 52.6986 12.9094C52.2258 12.5731 51.5439 12.4048 50.6534 12.4048H46.5081V16.4409H50.3807ZM51.499 24.1319C52.4262 24.1319 53.153 23.9641 53.6807 23.6275C54.2079 23.2911 54.4717 22.7682 54.4717 22.0591V22.0048C54.4717 21.3684 54.2261 20.864 53.7353 20.491C53.2442 20.1188 52.4535 19.9322 51.3625 19.9322H46.5081V24.1322H51.499V24.1319Z" fill="#F3BA2F"/>
<path d="M63.8864 8.72318H68.0866V27.8137H63.8864V8.72318Z" fill="#F3BA2F"/>
<path d="M74.448 8.72318H78.3201L87.2655 20.4776V8.72318H91.4109V27.8137H87.8385L78.593 15.6777V27.8137H74.448V8.72318Z" fill="#F3BA2F"/>
<path d="M104.126 8.58698H107.999L116.181 27.8137H111.79L110.044 23.5322H101.972L100.226 27.8137H95.9441L104.126 8.58698ZM108.544 19.8228L106.008 13.6322L103.472 19.8228H108.544Z" fill="#F3BA2F"/>
<path d="M120.714 8.72318H124.587L133.532 20.4776V8.72318H137.678V27.8137H134.105L124.86 15.6777V27.8137H120.714V8.72318Z" fill="#F3BA2F"/>
<path d="M152.793 28.1407C151.392 28.1407 150.093 27.886 148.893 27.3773C147.692 26.8686 146.656 26.1728 145.784 25.2908C144.911 24.4091 144.229 23.3682 143.739 22.1683C143.247 20.9681 143.002 19.6863 143.002 18.3226V18.2683C143.002 16.9046 143.247 15.6277 143.739 14.4366C144.229 13.2458 144.911 12.2003 145.784 11.3004C146.656 10.4005 147.702 9.69105 148.92 9.17299C150.137 8.65493 151.484 8.3959 152.956 8.3959C153.847 8.3959 154.66 8.46898 155.397 8.61399C156.133 8.75985 156.801 8.95946 157.401 9.21394C158.002 9.4687 158.556 9.77778 159.065 10.1412C159.573 10.5051 160.047 10.9049 160.483 11.3413L157.811 14.423C157.064 13.7505 156.306 13.2228 155.533 12.8412C154.76 12.4596 153.892 12.2686 152.929 12.2686C152.129 12.2686 151.388 12.4232 150.706 12.7323C150.025 13.0414 149.438 13.4684 148.947 14.0138C148.456 14.5592 148.075 15.1912 147.801 15.9092C147.529 16.6277 147.393 17.3957 147.393 18.2137V18.268C147.393 19.0861 147.529 19.8592 147.801 20.5859C148.075 21.3136 148.451 21.9496 148.934 22.495C149.415 23.0403 149.997 23.4725 150.679 23.7907C151.361 24.1091 152.111 24.2678 152.929 24.2678C154.02 24.2678 154.942 24.0679 155.697 23.6678C156.451 23.2684 157.202 22.7227 157.947 22.0315L160.62 24.7315C160.128 25.259 159.619 25.7318 159.092 26.1495C158.565 26.5681 157.988 26.9269 157.36 27.2272C156.733 27.5269 156.046 27.7546 155.302 27.9087C154.555 28.0631 153.72 28.1407 152.793 28.1407Z" fill="#F3BA2F"/>
<path d="M165.562 8.72318H179.935V12.4596H169.708V16.3323H178.708V20.0684H169.708V24.0776H180.072V27.8137H165.562V8.72318Z" fill="#F3BA2F"/>
</g>
<defs>
<clipPath id="clip0">
<rect width="179.704" height="36" fill="white" transform="translate(0.230759)"/>
</clipPath>
</defs>
</svg>
