<svg width="130" height="28" viewBox="0 0 130 28" fill="none" xmlns="http://www.w3.org/2000/svg">
<g clip-path="url(#clip0)">
<path d="M38.4239 1.62402C37.0799 1.62402 35.9039 2.72536 35.9039 4.10669C35.9039 5.52536 37.0799 6.66402 38.4239 6.66402C39.7679 6.66402 40.9439 5.52536 40.9439 4.10669C40.9439 2.72536 39.7679 1.62402 38.4239 1.62402Z" fill="white"/>
<path d="M52.1998 9.20264C49.5678 9.20264 46.4692 9.76264 43.9678 10.752V27.5893H47.9812V13.384C49.0452 13.0666 50.4638 12.8613 51.8825 12.8613C54.1225 12.8613 55.7465 13.7946 55.7465 16.3893V27.5893H59.7225V16.016C59.7038 10.9573 56.7918 9.20264 52.1998 9.20264Z" fill="white"/>
<path d="M40.4585 9.61334H36.4452V27.5893H40.4585V9.61334Z" fill="white"/>
<path d="M24.5919 9.20264C19.2345 9.20264 15.3519 13.0293 15.3519 18.6293C15.3519 24.192 19.2532 28 24.6105 28C30.0052 28 33.9065 24.192 33.9065 18.6293C33.8879 13.0293 29.9865 9.20264 24.5919 9.20264ZM24.5919 24.5466C21.5865 24.5466 19.4025 22.232 19.4025 18.6293C19.4025 14.9706 21.5865 12.656 24.5919 12.656C27.6719 12.656 29.8185 14.9706 29.8185 18.6293C29.8372 22.232 27.6719 24.5466 24.5919 24.5466Z" fill="white"/>
<path d="M10.7785 24.472C7.28787 24.472 4.8612 22.1946 4.8612 18.6293C4.8612 14.8586 7.3812 12.7866 10.6292 12.7866C11.5812 12.7866 12.5145 12.9546 13.4105 13.3093C13.8399 12.2453 14.4185 11.2746 15.1092 10.416C13.6159 9.6133 12.1412 9.20264 10.2559 9.20264C4.9732 9.20264 0.79187 12.824 0.79187 18.6293C0.79187 24.3973 4.76787 28 10.2559 28C12.1039 28 13.7839 27.608 15.4079 26.7493C14.6799 25.928 14.0639 24.9946 13.5972 23.9493C12.7012 24.2853 11.7679 24.472 10.7785 24.472Z" fill="white"/>
<path d="M71.1838 9.20267C69.5971 9.20267 67.9358 9.65067 67.0771 10.0987V0H63.0638V26.824C64.8931 27.4773 67.1704 28 69.7651 28C76.4104 28 80.2744 24.0987 80.2744 18.2933C80.2744 12.544 76.3918 9.20267 71.1838 9.20267ZM69.8958 24.5467C68.8878 24.5467 67.8611 24.416 67.0958 24.1733V13.6827C67.9171 13.2347 69.1304 12.824 70.7171 12.824C73.7598 12.824 76.2424 14.896 76.2424 18.3867C76.2238 22.5307 73.5918 24.5467 69.8958 24.5467Z" fill="white"/>
<path d="M89.0852 9.20264C86.8452 9.20264 84.8292 9.76264 83.2426 10.6586V14.1493C84.7359 13.2906 86.3599 12.6933 88.4319 12.6933C90.4106 12.6933 91.8852 13.5893 91.8852 15.5306V17.0426H89.8879C84.6986 17.0426 81.5626 18.8346 81.5626 22.4746C81.5626 26.5253 84.9786 27.9626 89.6452 27.9626C91.6799 27.9626 94.1066 27.6826 95.8052 27.2346V15.344C95.8239 10.8266 93.0239 9.20264 89.0852 9.20264ZM91.8852 24.752C91.1572 24.8826 90.2986 24.9573 89.7012 24.9573C87.2746 24.9573 85.5572 24.2293 85.5572 22.3626C85.5572 20.5333 87.3866 19.7306 90.1866 19.7306H91.8852V24.752Z" fill="white"/>
<path d="M105.195 16.8373C103.123 16.2773 102.357 15.6613 102.357 14.4853C102.357 13.3093 103.291 12.4506 105.027 12.4506C106.931 12.4506 108.48 13.1413 110.067 14.28V10.584C108.573 9.65064 106.949 9.20264 104.915 9.20264C101.256 9.20264 98.5118 10.9946 98.5118 14.6346C98.5118 17.752 100.099 19.264 103.832 20.104C106.147 20.72 107.192 21.2426 107.192 22.6986C107.192 24.1173 106.016 24.7333 104.224 24.7333C102.395 24.7333 100.416 23.968 98.7545 22.6986V26.5066C100.099 27.4026 102.208 27.9626 104.317 27.9626C108.219 27.9626 111.093 26.264 111.093 22.4933C111.075 19.2826 109.301 17.7333 105.195 16.8373Z" fill="white"/>
<path d="M129.069 19.5253V17.4907C129.069 12.5813 126.587 9.22131 121.36 9.22131C116.413 9.22131 112.68 13.0293 112.68 18.76C112.68 24.4347 116.488 28.0187 122.088 28.0187C124.403 28.0187 126.792 27.496 128.416 26.3573V22.8293C126.624 24.0053 124.851 24.5653 122.368 24.5653C119.568 24.5653 116.805 22.8293 116.563 19.6187V19.544H129.069V19.5253ZM121.248 12.5813C123.843 12.5813 125.224 14.1306 125.299 16.9307H116.693C117.235 14.2053 118.933 12.5813 121.248 12.5813Z" fill="white"/>
</g>
<defs>
<clipPath id="clip0">
<rect width="128.427" height="28" fill="white" transform="translate(0.79187)"/>
</clipPath>
</defs>
</svg>
