<svg width="158" height="36" viewBox="0 0 158 36" fill="none" xmlns="http://www.w3.org/2000/svg">
<g clip-path="url(#clip0)">
<path d="M123.508 17.9835C123.508 17.0653 123.508 16.2017 123.478 15.4041C123.458 14.6516 123.384 13.9016 123.255 13.1598C123.136 12.4825 122.924 11.8247 122.626 11.2046C122.312 10.5652 121.892 9.98348 121.384 9.48387C120.664 8.74592 119.807 8.15529 118.861 7.74498C117.838 7.33042 116.742 7.12492 115.638 7.14057C114.529 7.12625 113.429 7.33167 112.401 7.74498C111.45 8.14969 110.587 8.73775 109.863 9.47562C109.356 9.97493 108.938 10.5568 108.626 11.1964C108.331 11.8166 108.122 12.4745 108.007 13.1516C107.881 13.8935 107.81 14.6435 107.792 15.3958C107.772 16.1934 107.762 17.0571 107.767 17.9752C107.772 18.8934 107.767 19.7505 107.792 20.553C107.81 21.3053 107.881 22.0553 108.007 22.7973C108.122 23.4743 108.331 24.1322 108.626 24.7525C108.939 25.3913 109.357 25.973 109.863 26.4732C110.586 27.2117 111.449 27.7989 112.401 28.2006C113.429 28.6166 114.529 28.8232 115.638 28.8083C116.742 28.8245 117.838 28.6179 118.861 28.2006C119.807 27.7957 120.665 27.2088 121.384 26.4732C121.891 25.9727 122.311 25.3911 122.626 24.7525C122.924 24.1324 123.136 23.4746 123.255 22.7973C123.382 22.0576 123.456 21.3098 123.475 20.5597C123.5 19.7571 123.511 18.8984 123.505 17.9819L123.508 17.9835ZM119.347 17.9835C119.347 19.0008 119.332 19.8479 119.297 20.5217C119.278 21.0751 119.222 21.6267 119.132 22.173C119.07 22.537 118.959 22.8909 118.802 23.225C118.674 23.4942 118.507 23.743 118.306 23.9631C117.996 24.318 117.612 24.6 117.18 24.7888C116.694 24.9967 116.171 25.1024 115.643 25.0993C115.112 25.1016 114.586 24.996 114.097 24.7888C113.655 24.6035 113.26 24.3213 112.941 23.9631C112.739 23.744 112.572 23.495 112.446 23.225C112.293 22.8906 112.187 22.5365 112.132 22.173C112.044 21.6264 111.988 21.0749 111.967 20.5217C111.937 19.8479 111.922 19.0019 111.922 17.9835C111.922 16.9663 111.937 16.1175 111.967 15.4437C111.989 14.8904 112.044 14.339 112.132 13.7923C112.187 13.4288 112.293 13.0748 112.446 12.7404C112.572 12.4706 112.739 12.2217 112.941 12.0022C113.26 11.6445 113.655 11.3625 114.097 11.1765C114.585 10.967 115.111 10.8613 115.643 10.8661C116.171 10.8606 116.695 10.9664 117.18 11.1765C117.611 11.366 117.996 11.6478 118.306 12.0022C118.507 12.2227 118.674 12.4714 118.802 12.7404C118.959 13.0744 119.07 13.4283 119.132 13.7923C119.222 14.3387 119.277 14.8903 119.297 15.4437C119.333 16.1158 119.347 16.9646 119.347 17.9835Z" fill="#23AF91"/>
<path d="M156.668 7.69213C156.666 7.49132 156.504 7.32897 156.303 7.32718H152.87C152.668 7.32808 152.506 7.49095 152.505 7.69213V20.3747L144.132 7.42956C144.076 7.34204 144.026 7.32718 143.903 7.32718H140.719C140.518 7.32985 140.356 7.49169 140.354 7.69213V28.2716C140.357 28.4718 140.519 28.6331 140.719 28.6349H144.15C144.351 28.634 144.513 28.4719 144.514 28.2716V15.556L152.888 28.5308C152.946 28.6184 152.992 28.6332 153.117 28.6332H156.3C156.5 28.6323 156.663 28.4705 156.664 28.2699L156.668 7.69213Z" fill="#23AF91"/>
<path d="M133.654 7.69213C133.653 7.49095 133.49 7.32808 133.289 7.32718H129.859C129.658 7.32808 129.495 7.49095 129.494 7.69213V28.2699C129.495 28.4711 129.658 28.634 129.859 28.6349H133.289C133.49 28.634 133.653 28.4711 133.654 28.2699V7.69213Z" fill="#23AF91"/>
<path d="M92.5944 17.9835C92.5944 16.9596 92.6059 16.1075 92.6357 15.4288C92.6559 14.8754 92.711 14.3239 92.8008 13.7774C93.1179 11.9444 94.5215 10.8628 96.3133 10.8628C97.4825 10.8727 98.5426 11.3053 99.2197 12.2896C99.5263 12.749 99.7499 13.2588 99.8802 13.7956C99.8903 13.8522 99.9419 13.8916 99.9991 13.8864H104.037C104.095 13.8864 104.116 13.8468 104.106 13.7907C103.665 11.2921 102.333 9.0479 99.9777 7.93653C98.8203 7.40067 97.5571 7.13256 96.2819 7.15212C94.0085 7.15212 92.0935 7.93047 90.5368 9.48717C89.648 10.3534 89.0414 11.4676 88.7962 12.6842C88.5584 13.882 88.4384 15.6479 88.4362 17.9818C88.434 20.3158 88.554 22.0811 88.7962 23.2778C89.0393 24.496 89.6442 25.6125 90.5318 26.4815C92.0874 28.0371 94.0025 28.8149 96.2769 28.8149C97.552 28.8342 98.815 28.5667 99.9727 28.0321C102.328 26.9207 103.66 24.6765 104.101 22.178C104.111 22.1202 104.09 22.0822 104.032 22.0822H99.9925C99.9351 22.0762 99.883 22.116 99.8736 22.173C99.743 22.7092 99.5194 23.2184 99.2131 23.6774C98.536 24.6683 97.4758 25.096 96.3067 25.1042C94.5149 25.1042 93.1113 24.0242 92.7942 22.1912C92.7045 21.6448 92.6493 21.0932 92.6291 20.5398C92.6059 19.8578 92.5944 19.004 92.5944 17.9835Z" fill="#23AF91"/>
<path d="M49.9492 7.69213C49.9483 7.49095 49.7855 7.32808 49.5843 7.32718H46.1544C45.9532 7.32808 45.7903 7.49095 45.7894 7.69213V28.2716C45.7912 28.4721 45.9538 28.634 46.1544 28.6351H49.5843C49.7848 28.634 49.9474 28.4721 49.9492 28.2716V22.2308L52.7021 18.9397L58.3564 28.5259C58.3999 28.5966 58.4782 28.6382 58.5612 28.6351H62.7292C62.9208 28.6351 62.9555 28.516 62.8597 28.3525L55.4566 15.802L62.2487 7.65415C62.3858 7.48901 62.328 7.33213 62.1133 7.33213H57.5571C57.5017 7.32887 57.4483 7.35369 57.4151 7.39819L49.9492 16.3519V7.69213Z" fill="#23AF91"/>
<path d="M74.9378 25.1042C73.0074 25.1042 71.2569 23.3174 71.2569 21.1839V7.69213C71.256 7.49095 71.0932 7.32808 70.892 7.32718H67.4621C67.2609 7.32808 67.098 7.49095 67.0971 7.69213V21.131C67.0971 25.8292 70.6112 28.8149 74.9378 28.8149C79.2644 28.8149 82.7786 25.8292 82.7786 21.131V7.69213C82.7768 7.49132 82.6144 7.32897 82.4136 7.32718H78.9821C78.7815 7.32898 78.6196 7.49159 78.6188 7.69213V21.1839C78.6188 23.3158 76.8666 25.1042 74.9378 25.1042Z" fill="#23AF91"/>
<path fill-rule="evenodd" clip-rule="evenodd" d="M11.312 17.9835L21.9601 28.6332L28.6812 21.9121C29.883 20.83 31.7216 20.8781 32.8652 22.0217C34.0087 23.1652 34.0569 25.0039 32.9747 26.2057L24.1052 35.0769C22.9138 36.2486 21.003 36.2486 19.8116 35.0769L7.01512 22.2771V29.885C7.01512 31.564 5.65398 32.9252 3.97494 32.9252C2.29589 32.9252 0.934753 31.564 0.934753 29.885V6.07214C0.934753 4.39309 2.29589 3.03196 3.97494 3.03196C5.65398 3.03196 7.01512 4.39309 7.01512 6.07214V13.68L19.81 0.883517C21.001 -0.289053 22.9125 -0.289053 24.1036 0.883517L32.9797 9.75306C34.0618 10.9549 34.0137 12.7935 32.8702 13.9371C31.7266 15.0806 29.8879 15.1288 28.6861 14.0466L21.965 7.32553L11.312 17.9835ZM21.965 14.94C20.7339 14.9394 19.6236 15.6805 19.152 16.8177C18.6804 17.9549 18.9404 19.2642 19.8107 20.135C20.681 21.0058 21.9902 21.2665 23.1277 20.7955C24.2652 20.3245 25.0069 19.2146 25.0069 17.9835C25.0073 17.1763 24.6871 16.402 24.1166 15.831C23.5462 15.2599 22.7722 14.9388 21.965 14.9384V14.94Z" fill="#23AF91"/>
</g>
<defs>
<clipPath id="clip0">
<rect width="156.857" height="36" fill="white" transform="translate(0.934753)"/>
</clipPath>
</defs>
</svg>
