<svg width="108" height="36" viewBox="0 0 108 36" fill="none" xmlns="http://www.w3.org/2000/svg">
<path d="M40.207 24.7577H42.5216L42.129 22.9598V12.2755H39.9177V17.1527C39.2564 16.388 38.3264 15.9334 37.2518 15.9334C35.0406 15.9334 33.3253 17.7726 33.3253 20.4385C33.3253 23.1251 35.0406 24.9437 37.2518 24.9437C38.3471 24.9437 39.2977 24.4684 39.959 23.6624L40.207 24.7577ZM83.9361 18.3306C84.3907 18.3306 84.804 18.4546 85.176 18.7233L86.23 16.3674C85.734 16.0574 85.176 15.9334 84.618 15.9334C83.6261 15.9334 82.7788 16.388 82.2621 17.2353L82.0348 16.14H79.7616L80.1336 17.8346V24.7784H82.3448V19.2606C82.6341 18.6819 83.1921 18.3306 83.9361 18.3306ZM90.4045 22.6291C89.1232 22.6291 88.1726 21.7818 88.1726 20.4592C88.1726 19.1159 89.1232 18.2893 90.4045 18.2893C91.7065 18.2893 92.6364 19.1159 92.6364 20.4592C92.6364 21.7612 91.7065 22.6291 90.4045 22.6291ZM35.4745 20.4385C35.4745 19.0953 36.4252 18.2686 37.7065 18.2686C39.0084 18.2686 39.9384 19.0953 39.9384 20.4385C39.9384 21.7612 39.0084 22.6085 37.7065 22.6085C36.4252 22.6291 35.4745 21.7612 35.4745 20.4385ZM100.221 22.6291C98.9395 22.6291 97.9889 21.7818 97.9889 20.4592C97.9889 19.1159 98.9395 18.2893 100.221 18.2893C101.523 18.2893 102.453 19.1159 102.453 20.4592C102.432 21.7612 101.502 22.6291 100.221 22.6291ZM47.8947 18.1446C49.0314 18.1446 49.7753 18.6819 50.0233 19.6739H45.7662C45.9935 18.6613 46.7581 18.1446 47.8947 18.1446ZM74.3264 18.1446C75.4631 18.1446 76.207 18.6819 76.455 19.6739H72.1978C72.4665 18.6613 73.2105 18.1446 74.3264 18.1446ZM63.5388 24.7577H67.0934L69.408 16.0987H66.99L65.3161 23.1251L63.6215 16.1194H61.2449L63.5388 24.7577ZM57.8557 24.7577H60.067V16.0987H57.8557V24.7577ZM48.2254 24.923C49.4654 24.923 50.664 24.5717 51.6766 23.9311L50.8293 22.0298C50.044 22.4638 49.1347 22.6911 48.2461 22.6911C47.0888 22.6911 46.2828 22.2365 45.9108 21.3892H52.1519C52.2139 21.0585 52.2553 20.7692 52.2553 20.3765C52.2553 17.69 50.3953 15.9127 47.9361 15.9127C45.4355 15.9127 43.6169 17.7313 43.6169 20.4179C43.5962 23.1664 45.4148 24.923 48.2254 24.923ZM104.581 20.4385C104.581 17.752 102.721 15.9334 100.221 15.9334C97.6996 15.9334 95.8603 17.7726 95.8603 20.4385C95.8603 23.1044 97.7202 24.9437 100.221 24.9437C102.721 24.9437 104.581 23.1251 104.581 20.4385ZM74.6364 24.9437C75.8764 24.9437 77.075 24.613 78.0876 23.9517L77.2403 22.0505C76.455 22.4845 75.5457 22.7118 74.6571 22.7118C73.4998 22.7118 72.6938 22.2571 72.3218 21.4098H78.5629C78.6249 21.0792 78.6663 20.7899 78.6663 20.3972C78.6663 17.7106 76.8063 15.9334 74.3471 15.9334C71.8465 15.9334 70.0279 17.752 70.0279 20.4385C70.0279 23.2078 71.8259 24.9437 74.6364 24.9437ZM90.4045 24.9437C92.9257 24.9437 94.765 23.1044 94.765 20.4385C94.765 17.7726 92.9051 15.9334 90.4045 15.9334C87.8833 15.9334 86.044 17.7726 86.044 20.4385C86.044 23.1044 87.8833 24.9437 90.4045 24.9437ZM53.6605 24.7577H55.8718V12.2755H53.6605V24.7577ZM58.9717 14.9207C59.7363 14.9207 60.3563 14.3008 60.3563 13.5155C60.3563 12.7302 59.757 12.1102 58.9717 12.1102C58.1864 12.1102 57.5664 12.7302 57.5664 13.5155C57.5664 14.3008 58.1657 14.9207 58.9717 14.9207ZM20.9671 4.40179L19.7065 16.388L17.5572 6.28239L10.7788 7.70834L12.9074 17.814L3.15308 19.8806L4.88901 27.9403L22.0624 31.5981L25.9889 22.8151L27.8488 5.1251L20.9671 4.40179ZM15.5319 21.8025C15.1806 22.1331 14.726 22.0918 14.2093 21.9265C13.7134 21.7612 13.5067 21.1825 13.672 20.4385C13.8167 19.9012 14.4573 19.8186 14.8086 19.8186C14.9326 19.8186 15.0566 19.8392 15.1806 19.9012C15.408 20.0045 15.8006 20.2319 15.8833 20.5625C16.0073 21.0585 15.8833 21.4718 15.5319 21.8025ZM20.5124 22.3398C20.2438 22.7945 19.5825 22.8564 18.9005 22.5258C18.4458 22.2985 18.4458 21.7612 18.5078 21.4098C18.5285 21.2238 18.6112 21.0378 18.7352 20.8932C18.9005 20.6865 19.1691 20.4179 19.4585 20.4179C19.9751 20.3972 20.3884 20.6245 20.6364 21.0378C20.8844 21.4512 20.7604 21.9058 20.5124 22.3398Z" fill="#00CCBC"/>
</svg>
