<svg width="98" height="36" fill="none" xmlns="http://www.w3.org/2000/svg"><path fill-rule="evenodd" clip-rule="evenodd" d="M33.45 17.985c0-8.366-6.776-15.148-15.137-15.148-8.36 0-15.136 6.782-15.136 15.148 0 8.365 6.777 15.147 15.136 15.147 8.36 0 15.138-6.782 15.138-15.147zM18.314 35.152c-9.474 0-17.155-7.687-17.155-17.167C1.158 8.503 8.839.818 18.313.818c9.475 0 17.156 7.685 17.156 17.167 0 9.48-7.68 17.167-17.156 17.167zm1.574-17.167a1.574 1.574 0 1 1-3.148 0 1.574 1.574 0 0 1 3.148 0zm-.72-11.169v7.565a1.225 1.225 0 0 0 1.839 1.062l6.547-3.782c.915-.528 1.085-1.765.37-2.542a13.057 13.057 0 0 0-6.793-3.906c-1.01-.222-1.963.567-1.963 1.603zm1.963 23.94a13.053 13.053 0 0 0 6.792-3.906c.716-.777.546-2.013-.369-2.542l-6.547-3.782a1.226 1.226 0 0 0-1.839 1.062v7.565c0 1.036.952 1.825 1.963 1.603zM8.218 13.139c-.913-.528-2.068-.06-2.383.948a13.075 13.075 0 0 0-.593 3.898c0 1.358.209 2.666.593 3.897.315 1.008 1.47 1.476 2.383.948l6.55-3.783a1.227 1.227 0 0 0 0-2.125l-6.55-3.783zm22.575.948c-.315-1.008-1.47-1.476-2.384-.948l-6.55 3.784a1.227 1.227 0 0 0 0 2.124l6.55 3.784c.914.527 2.069.06 2.383-.949a13.03 13.03 0 0 0 .593-3.897c0-1.357-.208-2.667-.592-3.898zM9.074 11.66l6.548 3.783a1.226 1.226 0 0 0 1.838-1.062V6.815c0-1.034-.953-1.824-1.963-1.602a13.05 13.05 0 0 0-6.791 3.906c-.717.777-.546 2.013.368 2.541zm6.548 8.866L9.074 24.31c-.914.528-1.085 1.764-.368 2.541a13.044 13.044 0 0 0 6.791 3.906c1.01.222 1.963-.567 1.963-1.603v-7.565c0-.944-1.02-1.533-1.838-1.062z" fill="#BEF000"/><path fill-rule="evenodd" clip-rule="evenodd" d="M54.736 7.247a1.772 1.772 0 1 1-.003 3.544 1.772 1.772 0 0 1 .003-3.544z" fill="#fff"/><path fill-rule="evenodd" clip-rule="evenodd" d="M54.746 7.249a1.771 1.771 0 1 1-.001 3.542 1.771 1.771 0 0 1 .001-3.542zM53.32 27.16V12.938h2.823v14.742H53.32v-.518zM79.86 27.68h-2.306v-8.174c0-.763-.06-1.419-.178-1.97-.114-.522-.28-.944-.495-1.266a1.968 1.968 0 0 0-.749-.676c-.3-.15-.663-.227-1.083-.227a3.215 3.215 0 0 0-1.287.25 3.855 3.855 0 0 0-.594.308c-.187.118-.37.257-.55.415-.18.163-.35.336-.502.52a5.3 5.3 0 0 0-.798 1.307c-.097.227-.18.457-.248.691v8.821h-2.823v-8.173c0-.786-.058-1.456-.171-2.008-.11-.523-.268-.942-.478-1.256a1.822 1.822 0 0 0-.73-.65c-.303-.15-.67-.225-1.1-.225-.903 0-1.709.316-2.416.948-.366.326-.68.704-.941 1.132-.254.414-.46.88-.62 1.396v8.836h-2.824V12.937h2.665v1.952l.072-.08a6.611 6.611 0 0 1 1.34-1.145 5.99 5.99 0 0 1 1.574-.721 6.159 6.159 0 0 1 1.728-.243 5.19 5.19 0 0 1 1.731.274c.53.185.995.466 1.395.84a4.426 4.426 0 0 1 1.116 1.646c.534-.75 1.134-1.347 1.801-1.791.967-.646 2.065-.97 3.29-.97.42 0 .812.04 1.176.118.37.08.71.202 1.022.365.31.163.59.36.837.589.246.228.463.493.649.79.183.292.338.608.467.947.126.331.231.697.312 1.093.078.38.137.783.175 1.21.04.436.06.878.06 1.326v8.542h-.518zM93.833 19.066h-8.905a5.305 5.305 0 0 1 .377-1.273 4.541 4.541 0 0 1 .967-1.418 4.405 4.405 0 0 1 3.096-1.244c.301 0 .591.027.87.081a4.376 4.376 0 0 1 2.198 1.162c.2.198.385.414.551.65.17.241.32.498.45.77.127.266.23.555.309.863.034.133.063.27.087.41zm-4.464 8.876c1.183 0 2.36-.33 3.404-.905a7.628 7.628 0 0 0 1.77-1.344c.39-.399.735-.84 1.02-1.317.208-.35.386-.718.527-1.102h-2.962c-.127.22-.279.43-.448.626a4.978 4.978 0 0 1-1.503 1.171c-.574.293-1.18.461-1.73.466a4.13 4.13 0 0 1-1.675-.338 4.385 4.385 0 0 1-1.404-.956 4.885 4.885 0 0 1-.562-.674 5.207 5.207 0 0 1-.45-.795 4.873 4.873 0 0 1-.314-.885 5.685 5.685 0 0 1-.088-.418H96.561c.143-.794.106-1.844-.054-2.703a7.755 7.755 0 0 0-1.041-2.673c-.25-.4-.534-.773-.854-1.122a6.769 6.769 0 0 0-1.063-.941 7.251 7.251 0 0 0-1.248-.72 6.699 6.699 0 0 0-1.42-.458 7.628 7.628 0 0 0-1.54-.154c-.52 0-1.027.052-1.522.154-.494.1-.97.255-1.422.458-.453.203-.873.44-1.26.713a7.302 7.302 0 0 0-1.943 2.046 7.806 7.806 0 0 0-.656 1.282c-.182.457-.32.93-.412 1.416a8.326 8.326 0 0 0 0 3.02c.091.492.23.97.412 1.432a7.858 7.858 0 0 0 1.536 2.438c.328.352.689.67 1.08.95.39.28.809.52 1.254.72.448.204.922.357 1.42.46.498.102 1.01.153 1.54.153zM46.741 25.012h4.377v2.667h-4.377c-2.276 0-4.028-1.601-4.028-3.907V7.965h2.876v15.808c0 .645.508 1.239 1.152 1.239z" fill="#23D000"/></svg>
