<svg width="88" height="36" fill="none" xmlns="http://www.w3.org/2000/svg"><g clip-path="url(#prefix__a)" fill="#F46C62"><path d="M86.953 29.717a3.894 3.894 0 0 0-.946-1.38 4.27 4.27 0 0 0-1.407-.895 4.997 4.997 0 0 0-3.4 0 4.273 4.273 0 0 0-1.408.895 3.898 3.898 0 0 0-.945 1.38 4.973 4.973 0 0 0 0 3.484 4.375 4.375 0 0 0 2.353 2.364 4.5 4.5 0 0 0 1.7.316 4.498 4.498 0 0 0 1.7-.316 4.376 4.376 0 0 0 2.353-2.364 4.973 4.973 0 0 0 0-3.484zM64.435 35.52h7.025V11.293h-7.025V35.52zM71.1 1.16a4.078 4.078 0 0 0-1.396-.81 5.412 5.412 0 0 0-1.756-.27 5.212 5.212 0 0 0-1.756.28c-.518.184-.993.471-1.397.845a3.78 3.78 0 0 0-.911 1.26 3.814 3.814 0 0 0-.304 1.532 3.813 3.813 0 0 0 .304 1.531c.213.48.523.909.911 1.261.404.374.879.661 1.397.845.565.193 1.159.289 1.756.281a5.12 5.12 0 0 0 1.756-.286 4.03 4.03 0 0 0 1.397-.862 3.81 3.81 0 0 0 .912-1.3c.206-.51.31-1.055.303-1.605a3.594 3.594 0 0 0-.303-1.486A3.608 3.608 0 0 0 71.1 1.16z"/><path d="M64.435 35.52h7.025V11.293h-7.025V35.52zM71.1 1.16a4.078 4.078 0 0 0-1.396-.81 5.412 5.412 0 0 0-1.756-.27 5.212 5.212 0 0 0-1.756.28c-.518.184-.993.471-1.397.845a3.78 3.78 0 0 0-.911 1.26 3.814 3.814 0 0 0-.304 1.532 3.813 3.813 0 0 0 .304 1.531c.213.48.523.909.911 1.261.404.374.879.661 1.397.845.565.193 1.159.289 1.756.281a5.12 5.12 0 0 0 1.756-.286 4.03 4.03 0 0 0 1.397-.862 3.81 3.81 0 0 0 .912-1.3c.206-.51.31-1.055.303-1.605a3.594 3.594 0 0 0-.303-1.486A3.608 3.608 0 0 0 71.1 1.16zM55.788 16.967a11.86 11.86 0 0 0-2.038-2.528 12.441 12.441 0 0 0-2.69-1.908c-1.018-.537-2.1-.94-3.22-1.199a16.661 16.661 0 0 0-7.257 0 13.55 13.55 0 0 0-3.236 1.199 12.461 12.461 0 0 0-2.708 1.909 11.764 11.764 0 0 0-3.326 5.556 13.806 13.806 0 0 0 0 6.822 11.76 11.76 0 0 0 3.326 5.557 12.469 12.469 0 0 0 2.708 1.908c1.024.536 2.111.939 3.237 1.199 1.191.27 2.41.405 3.63.399 1.22.006 2.437-.129 3.626-.4 1.12-.26 2.202-.662 3.22-1.199a12.444 12.444 0 0 0 2.69-1.908 11.862 11.862 0 0 0 2.038-2.527c.569-.944 1-1.964 1.283-3.03.57-2.237.57-4.583 0-6.821a11.647 11.647 0 0 0-1.283-3.029zm-5.836 9.192a5.971 5.971 0 0 1-1.3 2.134 5.725 5.725 0 0 1-1.977 1.368 6.878 6.878 0 0 1-4.926 0 5.82 5.82 0 0 1-1.993-1.368 5.955 5.955 0 0 1-1.317-2.134 8.849 8.849 0 0 1 0-5.505 5.952 5.952 0 0 1 1.317-2.133 5.816 5.816 0 0 1 1.993-1.368 6.478 6.478 0 0 1 2.466-.456 6.436 6.436 0 0 1 2.46.456 5.721 5.721 0 0 1 1.977 1.368 5.97 5.97 0 0 1 1.3 2.133 8.955 8.955 0 0 1 0 5.505zM16.506 23.095l-1.969 4.68-1.838-4.514-4.872-11.968H.584v.016l5.02 11.952 5.15 12.26h7.251l5.172-12.26 5.05-11.968h-6.755l-4.966 11.802z"/></g><defs><clipPath id="prefix__a"><path fill="#fff" transform="translate(.516)" d="M0 0h86.823v36H0z"/></clipPath></defs></svg>
