<svg width="36" height="36" viewBox="0 0 36 36" fill="none" xmlns="http://www.w3.org/2000/svg">
<path d="M16.6166 2.47805C15.5562 2.16889 14.4459 2.7779 14.1367 3.83832L13.1905 7.08405C11.8751 11.5957 13.5437 16.2804 16.9814 19.0692C17.3329 19.3543 17.7846 19.486 18.2342 19.4344C22.6321 18.9301 26.5568 15.8761 27.8722 11.3645L28.8185 8.11874C29.1276 7.05832 28.5186 5.94806 27.4582 5.63889L16.6166 2.47805Z" fill="#F3BA2F"/>
<path d="M11.2707 12.6277C11.2503 12.5198 11.2088 12.4169 11.1485 12.3251C9.52531 9.85381 8.75492 6.87711 9.02486 3.85981C9.11023 2.90564 10.0757 2.34104 10.9954 2.60917L11.774 2.83616C12.2244 2.96749 12.6961 2.70878 12.8274 2.25831C12.9588 1.80784 12.7 1.33619 12.2496 1.20486L8.93259 0.237801C8.48212 0.106467 8.01048 0.365179 7.87914 0.815651C7.39536 2.47501 7.20082 4.18365 7.30098 5.89409C7.3978 7.5472 7.7668 9.16544 8.39771 10.7039C8.7958 11.6746 9.29475 12.5979 9.88133 13.4589C10.3693 14.1751 11.4318 13.4793 11.2707 12.6277Z" fill="#F3BA2F"/>
<path d="M31.8252 6.91209C31.3747 6.78075 30.9031 7.03946 30.7718 7.48994C30.6404 7.94041 30.8991 8.41205 31.3496 8.54339L32.1282 8.77038C33.0479 9.03851 33.5586 10.0335 33.1179 10.8841C31.724 13.5737 29.4745 15.67 26.7776 16.8817C26.6774 16.9267 26.5871 16.9912 26.5119 17.0712C25.9184 17.7028 26.4405 18.8606 27.2369 18.5188C28.1942 18.108 29.1112 17.5975 29.9686 16.9928C31.3275 16.0345 32.5083 14.8681 33.4783 13.526C34.4821 12.1374 35.2363 10.592 35.72 8.9326C35.8514 8.48212 35.5927 8.01048 35.1422 7.87914L31.8252 6.91209Z" fill="#F3BA2F"/>
<path d="M21.465 32.329C21.0146 32.1977 20.7558 31.726 20.8872 31.2756L21.992 27.4861C22.3012 26.4256 21.6921 25.3154 20.6317 25.0062L19.1618 24.5777C18.4814 24.3793 18.0906 23.6668 18.289 22.9864L18.5046 22.2468C18.6654 21.6954 18.2004 21.1594 17.6268 21.1896C17.2428 21.2098 16.8634 21.0991 16.5504 20.8758C16.0829 20.5421 15.4028 20.7442 15.242 21.2956L15.0264 22.0352C14.828 22.7156 14.1155 23.1064 13.4351 22.908L11.9652 22.4795C10.9048 22.1703 9.7945 22.7794 9.48534 23.8398L8.38052 27.6293C8.24919 28.0797 7.77754 28.3385 7.32707 28.2071C6.8766 28.0758 6.40495 28.3345 6.27362 28.785C6.14228 29.2354 6.401 29.7071 6.85147 29.8384L20.9894 33.9603C21.4399 34.0916 21.9115 33.8329 22.0429 33.3825C22.1742 32.932 21.9155 32.4603 21.465 32.329ZM17.7149 27.9907C17.5836 28.4412 17.112 28.6999 16.6615 28.5686L13.3989 27.6174C12.9484 27.4861 12.6897 27.0144 12.821 26.5639C12.9524 26.1135 13.424 25.8548 13.8745 25.9861L17.1371 26.9373C17.5876 27.0686 17.8463 27.5403 17.7149 27.9907Z" fill="#F3BA2F"/>
</svg>
